<svg viewBox="0 0 100 140" xmlns="http://www.w3.org/2000/svg">
  <!-- Hat -->
  <path d="M28 20 Q48 12 68 20 L66 32 L30 32 Z" fill="#8B4513" stroke="#654321" stroke-width="1"/>
  <ellipse cx="48" cy="20" rx="14" ry="8" fill="#654321"/>
  
  <!-- Feather -->
  <path d="M66 20 Q70 12 74 20" stroke="#DC2626" stroke-width="2.5" fill="none"/>
  <path d="M68 16 L70 12 L72 16" stroke="#DC2626" stroke-width="1.5" fill="none"/>
  <path d="M70 18 Q72 15 74 18 Q74 21 70 25 Q66 21 66 18 Q68 15 70 18 Z" fill="#DC2626"/>
  
  <!-- Hair -->
  <path d="M30 32 Q26 38 30 44 Q48 36 66 44 Q70 38 66 32" fill="#8B4513"/>
  
  <!-- Face -->
  <ellipse cx="48" cy="52" rx="18" ry="22" fill="#FDBCB4" stroke="#E68A7A" stroke-width="1"/>
  
  <!-- Eyes -->
  <circle cx="43" cy="47" r="2.5" fill="#2C3E50"/>
  <circle cx="53" cy="47" r="2.5" fill="#2C3E50"/>
  
  <!-- Eyebrows -->
  <path d="M39 43 Q43 41 47 43" stroke="#8B4513" stroke-width="1.5" fill="none"/>
  <path d="M49 43 Q53 41 57 43" stroke="#8B4513" stroke-width="1.5" fill="none"/>
  
  <!-- Nose -->
  <path d="M48 52 L47 55 L49 55 Z" fill="#E68A7A"/>
  
  <!-- Mouth -->
  <path d="M44 58 Q48 61 52 58" stroke="#DC2626" stroke-width="2" fill="none"/>
  
  <!-- Neck -->
  <rect x="43" y="70" width="10" height="10" fill="#FDBCB4"/>
  
  <!-- Doublet/Tunic -->
  <path d="M22 80 Q48 74 74 80 L74 108 Q48 114 22 108 Z" fill="#DC2626" stroke="#B91C1C" stroke-width="1"/>
  
  <!-- Heart decoration on chest -->
  <path d="M48 88 Q45 85 42 88 Q42 91 48 95 Q54 91 54 88 Q51 85 48 88 Z" fill="#B91C1C"/>
  
  <!-- Sleeves -->
  <ellipse cx="22" cy="88" rx="10" ry="16" fill="#DC2626" stroke="#B91C1C" stroke-width="1"/>
  <ellipse cx="74" cy="88" rx="10" ry="16" fill="#DC2626" stroke="#B91C1C" stroke-width="1"/>
  
  <!-- Arms -->
  <rect x="16" y="98" width="8" height="24" fill="#FDBCB4" rx="4"/>
  <rect x="72" y="98" width="8" height="24" fill="#FDBCB4" rx="4"/>
  
  <!-- Hands -->
  <circle cx="20" cy="118" r="4" fill="#FDBCB4"/>
  <circle cx="76" cy="118" r="4" fill="#FDBCB4"/>
  
  <!-- Belt -->
  <rect x="28" y="104" width="40" height="5" fill="#8B4513"/>
  <circle cx="48" cy="106.5" r="2" fill="#FFD700"/>
  
  <!-- Lower tunic -->
  <rect x="22" y="108" width="52" height="32" fill="#DC2626"/>
  
  <!-- Heart decorations on lower tunic -->
  <path d="M35 120 Q33 117 31 120 Q31 123 35 127 Q39 123 39 120 Q37 117 35 120 Z" fill="#B91C1C"/>
  <path d="M61 120 Q59 117 57 120 Q57 123 61 127 Q65 123 65 120 Q63 117 61 120 Z" fill="#B91C1C"/>
</svg>