<svg viewBox="0 0 100 140" xmlns="http://www.w3.org/2000/svg">
  <!-- Hat -->
  <path d="M28 20 Q48 12 68 20 L66 32 L30 32 Z" fill="#2C3E50" stroke="#1F2937" stroke-width="1"/>
  <ellipse cx="48" cy="20" rx="14" ry="8" fill="#1F2937"/>
  
  <!-- Feather -->
  <path d="M66 20 Q70 12 74 20" stroke="#6B7280" stroke-width="2.5" fill="none"/>
  <path d="M68 16 L70 12 L72 16" stroke="#6B7280" stroke-width="1.5" fill="none"/>
  <circle cx="70" cy="18" r="3" fill="#6B7280"/>
  <circle cx="68" cy="16" r="2" fill="#6B7280"/>
  <circle cx="72" cy="16" r="2" fill="#6B7280"/>
  <rect x="69" y="21" width="2" height="3" fill="#6B7280"/>
  
  <!-- Hair -->
  <path d="M30 32 Q26 38 30 44 Q48 36 66 44 Q70 38 66 32" fill="#2C3E50"/>
  
  <!-- Face -->
  <ellipse cx="48" cy="52" rx="18" ry="22" fill="#FDBCB4" stroke="#E68A7A" stroke-width="1"/>
  
  <!-- Eyes -->
  <circle cx="43" cy="47" r="2.5" fill="#2C3E50"/>
  <circle cx="53" cy="47" r="2.5" fill="#2C3E50"/>
  
  <!-- Eyebrows -->
  <path d="M39 43 Q43 41 47 43" stroke="#2C3E50" stroke-width="1.5" fill="none"/>
  <path d="M49 43 Q53 41 57 43" stroke="#2C3E50" stroke-width="1.5" fill="none"/>
  
  <!-- Nose -->
  <path d="M48 52 L47 55 L49 55 Z" fill="#E68A7A"/>
  
  <!-- Mouth -->
  <path d="M44 58 Q48 61 52 58" stroke="#6B7280" stroke-width="2" fill="none"/>
  
  <!-- Neck -->
  <rect x="43" y="70" width="10" height="10" fill="#FDBCB4"/>
  
  <!-- Doublet/Tunic -->
  <path d="M22 80 Q48 74 74 80 L74 108 Q48 114 22 108 Z" fill="#1F2937" stroke="#111827" stroke-width="1"/>
  
  <!-- Club decoration on chest -->
  <circle cx="48" cy="88" r="3" fill="#374151"/>
  <circle cx="45" cy="86" r="2.5" fill="#374151"/>
  <circle cx="51" cy="86" r="2.5" fill="#374151"/>
  <rect x="47" y="91" width="2" height="4" fill="#374151"/>
  
  <!-- Sleeves -->
  <ellipse cx="22" cy="88" rx="10" ry="16" fill="#1F2937" stroke="#111827" stroke-width="1"/>
  <ellipse cx="74" cy="88" rx="10" ry="16" fill="#1F2937" stroke="#111827" stroke-width="1"/>
  
  <!-- Arms -->
  <rect x="16" y="98" width="8" height="24" fill="#FDBCB4" rx="4"/>
  <rect x="72" y="98" width="8" height="24" fill="#FDBCB4" rx="4"/>
  
  <!-- Hands -->
  <circle cx="20" cy="118" r="4" fill="#FDBCB4"/>
  <circle cx="76" cy="118" r="4" fill="#FDBCB4"/>
  
  <!-- Belt -->
  <rect x="28" y="104" width="40" height="5" fill="#2C3E50"/>
  <circle cx="48" cy="106" r="3" fill="#6B7280"/>
  <circle cx="45" cy="104" r="2" fill="#6B7280"/>
  <circle cx="51" cy="104" r="2" fill="#6B7280"/>
  <rect x="47" y="109" width="2" height="3" fill="#6B7280"/>
  
  <!-- Lower tunic -->
  <rect x="22" y="108" width="52" height="32" fill="#1F2937"/>
  
  <!-- Club decorations on lower tunic -->
  <circle cx="35" cy="120" r="2.5" fill="#374151"/>
  <circle cx="33" cy="118" r="2" fill="#374151"/>
  <circle cx="37" cy="118" r="2" fill="#374151"/>
  <rect x="34" y="122" width="2" height="3" fill="#374151"/>
  
  <circle cx="61" cy="120" r="2.5" fill="#374151"/>
  <circle cx="59" cy="118" r="2" fill="#374151"/>
  <circle cx="63" cy="118" r="2" fill="#374151"/>
  <rect x="60" y="122" width="2" height="3" fill="#374151"/>
</svg>