<svg viewBox="0 0 100 140" xmlns="http://www.w3.org/2000/svg">
  <!-- Hat -->
  <path d="M28 20 Q48 12 68 20 L66 32 L30 32 Z" fill="#654321" stroke="#4A2C17" stroke-width="1"/>
  <ellipse cx="48" cy="20" rx="14" ry="8" fill="#4A2C17"/>
  
  <!-- Feather -->
  <path d="M66 20 Q70 12 74 20" stroke="#DC2626" stroke-width="2.5" fill="none"/>
  <path d="M68 16 L70 12 L72 16" stroke="#DC2626" stroke-width="1.5" fill="none"/>
  <path d="M70 18 L68 21 L70 24 L72 21 Z" fill="#DC2626"/>
  
  <!-- Hair -->
  <path d="M30 32 Q26 38 30 44 Q48 36 66 44 Q70 38 66 32" fill="#654321"/>
  
  <!-- Face -->
  <ellipse cx="48" cy="52" rx="18" ry="22" fill="#FDBCB4" stroke="#E68A7A" stroke-width="1"/>
  
  <!-- Eyes -->
  <circle cx="43" cy="47" r="2.5" fill="#2C3E50"/>
  <circle cx="53" cy="47" r="2.5" fill="#2C3E50"/>
  
  <!-- Eyebrows -->
  <path d="M39 43 Q43 41 47 43" stroke="#654321" stroke-width="1.5" fill="none"/>
  <path d="M49 43 Q53 41 57 43" stroke="#654321" stroke-width="1.5" fill="none"/>
  
  <!-- Nose -->
  <path d="M48 52 L47 55 L49 55 Z" fill="#E68A7A"/>
  
  <!-- Mouth -->
  <path d="M44 58 Q48 61 52 58" stroke="#DC2626" stroke-width="2" fill="none"/>
  
  <!-- Neck -->
  <rect x="43" y="70" width="10" height="10" fill="#FDBCB4"/>
  
  <!-- Doublet/Tunic -->
  <path d="M22 80 Q48 74 74 80 L74 108 Q48 114 22 108 Z" fill="#DC2626" stroke="#B91C1C" stroke-width="1"/>
  
  <!-- Diamond decoration on chest -->
  <path d="M48 88 L46 91 L48 94 L50 91 Z" fill="#FFD700"/>
  
  <!-- Sleeves -->
  <ellipse cx="22" cy="88" rx="10" ry="16" fill="#DC2626" stroke="#B91C1C" stroke-width="1"/>
  <ellipse cx="74" cy="88" rx="10" ry="16" fill="#DC2626" stroke="#B91C1C" stroke-width="1"/>
  
  <!-- Arms -->
  <rect x="16" y="98" width="8" height="24" fill="#FDBCB4" rx="4"/>
  <rect x="72" y="98" width="8" height="24" fill="#FDBCB4" rx="4"/>
  
  <!-- Hands -->
  <circle cx="20" cy="118" r="4" fill="#FDBCB4"/>
  <circle cx="76" cy="118" r="4" fill="#FDBCB4"/>
  
  <!-- Belt -->
  <rect x="28" y="104" width="40" height="5" fill="#654321"/>
  <path d="M48 103 L46 106 L48 109 L50 106 Z" fill="#FFD700"/>
  
  <!-- Lower tunic -->
  <rect x="22" y="108" width="52" height="32" fill="#DC2626"/>
  
  <!-- Diamond decorations on lower tunic -->
  <path d="M35 120 L33 123 L35 126 L37 123 Z" fill="#FFD700"/>
  <path d="M61 120 L59 123 L61 126 L63 123 Z" fill="#FFD700"/>
</svg>