<svg viewBox="0 0 100 140" xmlns="http://www.w3.org/2000/svg">
  <!-- Crown -->
  <path d="M20 20 L28 12 L33 24 L38 8 L43 24 L48 8 L53 24 L58 8 L63 24 L68 12 L76 20 L72 36 L24 36 Z" 
        fill="#FFD700" stroke="#DAA520" stroke-width="1"/>
  
  <!-- Crown jewels (hearts) -->
  <path d="M38 18 Q35 15 32 18 Q32 21 38 25 Q44 21 44 18 Q41 15 38 18 Z" fill="#DC2626"/>
  <path d="M48 18 Q45 15 42 18 Q42 21 48 25 Q54 21 54 18 Q51 15 48 18 Z" fill="#DC2626"/>
  <path d="M58 18 Q55 15 52 18 Q52 21 58 25 Q64 21 64 18 Q61 15 58 18 Z" fill="#DC2626"/>

  <!-- Hair -->
  <path d="M24 36 Q18 42 24 48 L72 48 Q78 42 72 36" fill="#8B4513"/>
  
  <!-- Face -->
  <ellipse cx="48" cy="58" rx="20" ry="26" fill="#FDBCB4" stroke="#E68A7A" stroke-width="1"/>

  <!-- Eyes -->
  <circle cx="42" cy="52" r="2.5" fill="#2C3E50"/>
  <circle cx="54" cy="52" r="2.5" fill="#2C3E50"/>
  <path d="M38 49 Q42 47 46 49" stroke="#8B4513" stroke-width="1.2" fill="none"/>
  <path d="M50 49 Q54 47 58 49" stroke="#8B4513" stroke-width="1.2" fill="none"/>

  <!-- Nose -->
  <path d="M48 58 L47 61 L49 61 Z" fill="#E68A7A"/>

  <!-- Mustache -->
  <path d="M40 63 Q48 68 56 63" stroke="#8B4513" stroke-width="3.5" fill="none"/>

  <!-- Beard -->
  <path d="M32 70 Q48 88 64 70 Q58 98 48 98 Q38 98 32 70" fill="#8B4513"/>
  
  <!-- Neck -->
  <rect x="43" y="78" width="10" height="10" fill="#FDBCB4"/>
  
  <!-- Royal collar -->
  <ellipse cx="48" cy="86" rx="14" ry="4" fill="#FFD700" stroke="#DAA520" stroke-width="1"/>
  <path d="M48 84 Q45 81 42 84 Q42 87 48 91 Q54 87 54 84 Q51 81 48 84 Z" fill="#DC2626"/>

  <!-- Royal robe -->
  <path d="M12 88 Q48 82 84 88 L84 115 Q48 122 12 115 Z" fill="#DC2626" stroke="#B91C1C" stroke-width="1"/>
  
  <!-- Heart pattern trim -->
  <path d="M22 95 Q20 92 18 95 Q18 98 22 102 Q26 98 26 95 Q24 92 22 95 Z" fill="#B91C1C"/>
  <path d="M35 96 Q33 93 31 96 Q31 99 35 103 Q39 99 39 96 Q37 93 35 96 Z" fill="#B91C1C"/>
  <path d="M48 95 Q46 92 44 95 Q44 98 48 102 Q52 98 52 95 Q50 92 48 95 Z" fill="#B91C1C"/>
  <path d="M61 96 Q59 93 57 96 Q57 99 61 103 Q65 99 65 96 Q63 93 61 96 Z" fill="#B91C1C"/>
  <path d="M74 95 Q72 92 70 95 Q70 98 74 102 Q78 98 78 95 Q76 92 74 95 Z" fill="#B91C1C"/>
  
  <!-- Sleeves -->
  <ellipse cx="12" cy="98" rx="14" ry="20" fill="#DC2626" stroke="#B91C1C" stroke-width="1"/>
  <ellipse cx="84" cy="98" rx="14" ry="20" fill="#DC2626" stroke="#B91C1C" stroke-width="1"/>
  
  <!-- Arms -->
  <rect x="4" y="112" width="10" height="18" fill="#FDBCB4" rx="5"/>
  <rect x="82" y="112" width="10" height="18" fill="#FDBCB4" rx="5"/>
  
  <!-- Scepter (right hand) -->
  <rect x="84" y="118" width="5" height="12" fill="#8B4513"/>
  <circle cx="86.5" cy="118" r="5" fill="#FFD700"/>
  <path d="M86.5 116 Q84 113 82 116 Q82 119 86.5 123 Q91 119 91 116 Q89 113 86.5 116 Z" fill="#DC2626"/>
  
  <!-- Orb (left hand) -->
  <circle cx="9" cy="125" r="5" fill="#FFD700"/>
  <path d="M9 123 Q7 120 5 123 Q5 126 9 130 Q13 126 13 123 Q11 120 9 123 Z" fill="#DC2626"/>
  
  <!-- Robe skirt -->
  <path d="M18 115 Q48 110 78 115 L78 140 L18 140 Z" fill="#DC2626" stroke="#B91C1C" stroke-width="1"/>
</svg>