<svg viewBox="0 0 100 102" xmlns="http://www.w3.org/2000/svg">
  <!-- Crown -->
  <path d="M20 15 L30 8 L35 18 L40 5 L45 18 L50 5 L55 18 L60 5 L65 18 L70 8 L80 15 L75 30 L25 30 Z" 
        fill="#FFD700" stroke="#DAA520" stroke-width="1"/>
  
  <!-- Crown jewels (diamond shapes) -->
  <path d="M40 12 L37 15 L40 18 L43 15 Z" fill="#DC2626"/>
  <path d="M50 12 L46 16 L50 20 L54 16 Z" fill="#DC2626"/>
  <path d="M60 12 L57 15 L60 18 L63 15 Z" fill="#DC2626"/>

  <!-- Hair (visible at sides) -->
  <path d="M25 30 Q20 35 25 40 L75 40 Q80 35 75 30" fill="#654321"/>
  
  <!-- Face -->
  <ellipse cx="50" cy="45" rx="18" ry="22" fill="#FDBCB4" stroke="#E68A7A" stroke-width="1"/>

  <!-- Eyes -->
  <circle cx="44" cy="40" r="2" fill="#2C3E50"/>
  <circle cx="56" cy="40" r="2" fill="#2C3E50"/>
  <path d="M41 38 Q44 36 47 38" stroke="#654321" stroke-width="1" fill="none"/>
  <path d="M53 38 Q56 36 59 38" stroke="#654321" stroke-width="1" fill="none"/>

  <!-- Nose -->
  <path d="M50 45 L49 47 L51 47 Z" fill="#E68A7A"/>

  <!-- Mustache -->
  <path d="M42 48 Q50 52 58 48" stroke="#654321" stroke-width="3" fill="none"/>

  <!-- Beard -->
  <path d="M35 55 Q50 70 65 55 Q60 80 50 80 Q40 80 35 55" fill="#654321"/>
  
  <!-- Neck (visible above robe) -->
  <rect x="45" y="62" width="10" height="8" fill="#FDBCB4"/>
  
  <!-- Royal collar with diamonds -->
  <ellipse cx="50" cy="68" rx="12" ry="3" fill="#FFD700" stroke="#DAA520" stroke-width="1"/>
  <path d="M45 68 L43 70 L45 72 L47 70 Z" fill="#DC2626"/>
  <path d="M55 68 L53 70 L55 72 L57 70 Z" fill="#DC2626"/>

  <!-- Royal robe -->
  <path d="M15 70 Q50 65 85 70 L85 90 Q50 95 15 90 Z" fill="#DC2626" stroke="#B91C1C" stroke-width="1"/>
  
  <!-- Diamond pattern trim -->
  <path d="M25 75 L23 77 L25 79 L27 77 Z" fill="#FFD700"/>
  <path d="M35 76 L33 78 L35 80 L37 78 Z" fill="#FFD700"/>
  <path d="M45 75 L43 77 L45 79 L47 77 Z" fill="#FFD700"/>
  <path d="M55 76 L53 78 L55 80 L57 78 Z" fill="#FFD700"/>
  <path d="M65 75 L63 77 L65 79 L67 77 Z" fill="#FFD700"/>
  <path d="M75 76 L73 78 L75 80 L77 78 Z" fill="#FFD700"/>
  
  <!-- Sleeves -->
  <ellipse cx="15" cy="78" rx="12" ry="16" fill="#DC2626" stroke="#B91C1C" stroke-width="1"/>
  <ellipse cx="85" cy="78" rx="12" ry="16" fill="#DC2626" stroke="#B91C1C" stroke-width="1"/>
  
  <!-- Arms -->
  <rect x="8" y="88" width="8" height="14" fill="#FDBCB4" rx="4"/>
  <rect x="84" y="88" width="8" height="14" fill="#FDBCB4" rx="4"/>
  
  
  <!-- Robe skirt -->
  <path d="M20 90 Q50 87 80 90 L82 102 L18 102 Z" fill="#DC2626" stroke="#B91C1C" stroke-width="1"/>
</svg>