<svg viewBox="0 0 100 102" xmlns="http://www.w3.org/2000/svg">
  <!-- Crown -->
  <path d="M20 15 L30 8 L35 18 L40 5 L45 18 L50 5 L55 18 L60 5 L65 18 L70 8 L80 15 L75 30 L25 30 Z" 
        fill="#374151" stroke="#1F2937" stroke-width="1"/>
  
  <!-- Crown jewels (spade shapes) -->
  <path d="M40 12 Q37 15 37 18 Q37 20 40 20 Q43 20 43 18 Q43 15 40 12 Z" fill="#6B7280"/>
  <rect x="39" y="18" width="2" height="3" fill="#6B7280"/>
  
  <path d="M50 12 Q46 16 46 20 Q46 23 50 23 Q54 23 54 20 Q54 16 50 12 Z" fill="#6B7280"/>
  <rect x="49" y="20" width="2" height="4" fill="#6B7280"/>
  
  <path d="M60 12 Q57 15 57 18 Q57 20 60 20 Q63 20 63 18 Q63 15 60 12 Z" fill="#6B7280"/>
  <rect x="59" y="18" width="2" height="3" fill="#6B7280"/>

  <!-- Hair (visible at sides) -->
  <path d="M25 30 Q20 35 25 40 L75 40 Q80 35 75 30" fill="#1F2937"/>
  
  <!-- Face -->
  <ellipse cx="50" cy="45" rx="18" ry="22" fill="#FDBCB4" stroke="#E68A7A" stroke-width="1"/>

  <!-- Eyes -->
  <circle cx="44" cy="40" r="2" fill="#2C3E50"/>
  <circle cx="56" cy="40" r="2" fill="#2C3E50"/>
  <path d="M41 38 Q44 36 47 38" stroke="#1F2937" stroke-width="1" fill="none"/>
  <path d="M53 38 Q56 36 59 38" stroke="#1F2937" stroke-width="1" fill="none"/>

  <!-- Nose -->
  <path d="M50 45 L49 47 L51 47 Z" fill="#E68A7A"/>

  <!-- Mustache -->
  <path d="M42 48 Q50 52 58 48" stroke="#1F2937" stroke-width="3" fill="none"/>

  <!-- Beard -->
  <path d="M35 55 Q50 70 65 55 Q60 80 50 80 Q40 80 35 55" fill="#1F2937"/>
  
  <!-- Neck (visible above robe) -->
  <rect x="45" y="62" width="10" height="8" fill="#FDBCB4"/>
  
  <!-- Royal collar with spade -->
  <ellipse cx="50" cy="68" rx="12" ry="3" fill="#374151" stroke="#1F2937" stroke-width="1"/>
  <path d="M50 66 Q47 69 47 72 Q47 74 50 74 Q53 74 53 72 Q53 69 50 66 Z" fill="#6B7280"/>
  <rect x="49" y="72" width="2" height="3" fill="#6B7280"/>

  <!-- Royal robe -->
  <path d="M15 70 Q50 65 85 70 L85 90 Q50 95 15 90 Z" fill="#1F2937" stroke="#111827" stroke-width="1"/>
  
  <!-- Spade pattern trim -->
  <path d="M25 75 Q22 78 22 81 Q22 83 25 83 Q28 83 28 81 Q28 78 25 75 Z" fill="#374151"/>
  <rect x="24" y="81" width="2" height="3" fill="#374151"/>
  
  <path d="M35 76 Q32 79 32 82 Q32 84 35 84 Q38 84 38 82 Q38 79 35 76 Z" fill="#374151"/>
  <rect x="34" y="82" width="2" height="3" fill="#374151"/>
  
  <path d="M45 75 Q42 78 42 81 Q42 83 45 83 Q48 83 48 81 Q48 78 45 75 Z" fill="#374151"/>
  <rect x="44" y="81" width="2" height="3" fill="#374151"/>
  
  <path d="M55 76 Q52 79 52 82 Q52 84 55 84 Q58 84 58 82 Q58 79 55 76 Z" fill="#374151"/>
  <rect x="54" y="82" width="2" height="3" fill="#374151"/>
  
  <path d="M65 75 Q62 78 62 81 Q62 83 65 83 Q68 83 68 81 Q68 78 65 75 Z" fill="#374151"/>
  <rect x="64" y="81" width="2" height="3" fill="#374151"/>
  
  <path d="M75 76 Q72 79 72 82 Q72 84 75 84 Q78 84 78 82 Q78 79 75 76 Z" fill="#374151"/>
  <rect x="74" y="82" width="2" height="3" fill="#374151"/>
  
  <!-- Sleeves -->
  <ellipse cx="15" cy="78" rx="12" ry="16" fill="#1F2937" stroke="#111827" stroke-width="1"/>
  <ellipse cx="85" cy="78" rx="12" ry="16" fill="#1F2937" stroke="#111827" stroke-width="1"/>
  
  <!-- Arms -->
  <rect x="8" y="88" width="8" height="14" fill="#FDBCB4" rx="4"/>
  <rect x="84" y="88" width="8" height="14" fill="#FDBCB4" rx="4"/>
  
  
  <!-- Robe skirt -->
  <path d="M20 90 Q50 87 80 90 L82 102 L18 102 Z" fill="#1F2937" stroke="#111827" stroke-width="1"/>
</svg>