<svg viewBox="0 0 100 104" xmlns="http://www.w3.org/2000/svg">
  <!-- Crown -->
  <path d="M20 15 L30 8 L35 18 L40 5 L45 18 L50 5 L55 18 L60 5 L65 18 L70 8 L80 15 L75 30 L25 30 Z" 
        fill="#FFD700" stroke="#DAA520" stroke-width="1"/>
  
  <!-- Crown jewels -->
  <circle cx="40" cy="12" r="2" fill="#DC2626"/>
  <circle cx="50" cy="12" r="3" fill="#DC2626"/>
  <circle cx="60" cy="12" r="2" fill="#DC2626"/>
  
  <!-- Cross on crown -->
  <rect x="49" y="8" width="2" height="6" fill="#DC2626"/>
  <rect x="47" y="10" width="6" height="2" fill="#DC2626"/>

  <!-- Hair (visible at sides) -->
  <path d="M25 30 Q20 35 25 40 L75 40 Q80 35 75 30" fill="#8B4513"/>
  
  <!-- Face -->
  <ellipse cx="50" cy="45" rx="18" ry="22" fill="#FDBCB4" stroke="#E68A7A" stroke-width="1"/>

  <!-- Eyes -->
  <circle cx="44" cy="40" r="2" fill="#2C3E50"/>
  <circle cx="56" cy="40" r="2" fill="#2C3E50"/>
  <path d="M41 38 Q44 36 47 38" stroke="#8B4513" stroke-width="1" fill="none"/>
  <path d="M53 38 Q56 36 59 38" stroke="#8B4513" stroke-width="1" fill="none"/>

  <!-- Nose -->
  <path d="M50 45 L49 47 L51 47 Z" fill="#E68A7A"/>

  <!-- Mustache -->
  <path d="M42 48 Q50 52 58 48" stroke="#8B4513" stroke-width="3" fill="none"/>

  <!-- Beard -->
  <path d="M35 55 Q50 70 65 55 Q60 80 50 80 Q40 80 35 55" fill="#8B4513"/>
  
  <!-- Neck (visible above robe) -->
  <rect x="45" y="62" width="10" height="8" fill="#FDBCB4"/>
  
  <!-- Royal collar -->
  <ellipse cx="50" cy="68" rx="12" ry="3" fill="#FFD700" stroke="#DAA520" stroke-width="1"/>

  <!-- Royal robe -->
  <path d="M15 70 Q50 65 85 70 L85 90 Q50 95 15 90 Z" fill="#DC2626" stroke="#B91C1C" stroke-width="1"/>
  
  <!-- Ermine trim -->
  <path d="M20 75 Q50 73 80 75" stroke="#FFFFFF" stroke-width="3" fill="none"/>
  <circle cx="25" cy="75" r="1" fill="#2C3E50"/>
  <circle cx="35" cy="76" r="1" fill="#2C3E50"/>
  <circle cx="45" cy="75" r="1" fill="#2C3E50"/>
  <circle cx="55" cy="76" r="1" fill="#2C3E50"/>
  <circle cx="65" cy="75" r="1" fill="#2C3E50"/>
  <circle cx="75" cy="76" r="1" fill="#2C3E50"/>
  
  <!-- Sleeves -->
  <ellipse cx="15" cy="78" rx="12" ry="16" fill="#DC2626" stroke="#B91C1C" stroke-width="1"/>
  <ellipse cx="85" cy="78" rx="12" ry="16" fill="#DC2626" stroke="#B91C1C" stroke-width="1"/>
  
  <!-- Arms -->
  <rect x="8" y="88" width="8" height="16" fill="#FDBCB4" rx="4"/>
  <rect x="84" y="88" width="8" height="16" fill="#FDBCB4" rx="4"/>
  
  <!-- Scepter (right hand) -->
  <rect x="86" y="95" width="4" height="9" fill="#8B4513"/>
  <circle cx="88" cy="95" r="4" fill="#FFD700"/>
  <circle cx="88" cy="95" r="2" fill="#DC2626"/>
  
  <!-- Orb (left hand) -->
  <circle cx="12" cy="100" r="4" fill="#FFD700"/>
  <rect x="11" y="96" width="2" height="4" fill="#DC2626"/>
  <rect x="10" y="98" width="4" height="2" fill="#DC2626"/>
  
  <!-- Robe skirt -->
  <path d="M20 90 Q50 87 80 90 L80 104 L20 104 Z" fill="#DC2626" stroke="#B91C1C" stroke-width="1"/>
</svg>