<svg viewBox="0 0 100 140" xmlns="http://www.w3.org/2000/svg">
  <!-- Crown -->
  <path d="M20 20 L28 12 L33 24 L38 8 L43 24 L48 8 L53 24 L58 8 L63 24 L68 12 L76 20 L72 36 L24 36 Z" 
        fill="#374151" stroke="#1F2937" stroke-width="1"/>
  
  <!-- Crown jewels (spades) -->
  <path d="M38 18 Q35 21 35 24 Q35 26 38 26 Q41 26 41 24 Q41 21 38 18 Z" fill="#6B7280"/>
  <rect x="37" y="24" width="2" height="4" fill="#6B7280"/>
  
  <path d="M48 18 Q44 22 44 26 Q44 29 48 29 Q52 29 52 26 Q52 22 48 18 Z" fill="#6B7280"/>
  <rect x="47" y="26" width="2" height="5" fill="#6B7280"/>
  
  <path d="M58 18 Q55 21 55 24 Q55 26 58 26 Q61 26 61 24 Q61 21 58 18 Z" fill="#6B7280"/>
  <rect x="57" y="24" width="2" height="4" fill="#6B7280"/>

  <!-- Hair -->
  <path d="M24 36 Q18 42 24 48 L72 48 Q78 42 72 36" fill="#1F2937"/>
  
  <!-- Face -->
  <ellipse cx="48" cy="58" rx="20" ry="26" fill="#FDBCB4" stroke="#E68A7A" stroke-width="1"/>

  <!-- Eyes -->
  <circle cx="42" cy="52" r="2.5" fill="#2C3E50"/>
  <circle cx="54" cy="52" r="2.5" fill="#2C3E50"/>
  <path d="M38 49 Q42 47 46 49" stroke="#1F2937" stroke-width="1.2" fill="none"/>
  <path d="M50 49 Q54 47 58 49" stroke="#1F2937" stroke-width="1.2" fill="none"/>

  <!-- Nose -->
  <path d="M48 58 L47 61 L49 61 Z" fill="#E68A7A"/>

  <!-- Mustache -->
  <path d="M40 63 Q48 68 56 63" stroke="#1F2937" stroke-width="3.5" fill="none"/>

  <!-- Beard -->
  <path d="M32 70 Q48 88 64 70 Q58 98 48 98 Q38 98 32 70" fill="#1F2937"/>
  
  <!-- Neck -->
  <rect x="43" y="78" width="10" height="10" fill="#FDBCB4"/>
  
  <!-- Royal collar -->
  <ellipse cx="48" cy="86" rx="14" ry="4" fill="#374151" stroke="#1F2937" stroke-width="1"/>
  <path d="M48 84 Q45 87 45 90 Q45 92 48 92 Q51 92 51 90 Q51 87 48 84 Z" fill="#6B7280"/>
  <rect x="47" y="90" width="2" height="3" fill="#6B7280"/>

  <!-- Royal robe -->
  <path d="M12 88 Q48 82 84 88 L84 115 Q48 122 12 115 Z" fill="#1F2937" stroke="#111827" stroke-width="1"/>
  
  <!-- Spade pattern trim -->
  <path d="M22 95 Q19 98 19 101 Q19 103 22 103 Q25 103 25 101 Q25 98 22 95 Z" fill="#374151"/>
  <rect x="21" y="101" width="2" height="3" fill="#374151"/>
  
  <path d="M35 96 Q32 99 32 102 Q32 104 35 104 Q38 104 38 102 Q38 99 35 96 Z" fill="#374151"/>
  <rect x="34" y="102" width="2" height="3" fill="#374151"/>
  
  <path d="M48 95 Q45 98 45 101 Q45 103 48 103 Q51 103 51 101 Q51 98 48 95 Z" fill="#374151"/>
  <rect x="47" y="101" width="2" height="3" fill="#374151"/>
  
  <path d="M61 96 Q58 99 58 102 Q58 104 61 104 Q64 104 64 102 Q64 99 61 96 Z" fill="#374151"/>
  <rect x="60" y="102" width="2" height="3" fill="#374151"/>
  
  <path d="M74 95 Q71 98 71 101 Q71 103 74 103 Q77 103 77 101 Q77 98 74 95 Z" fill="#374151"/>
  <rect x="73" y="101" width="2" height="3" fill="#374151"/>
  
  <!-- Sleeves -->
  <ellipse cx="12" cy="98" rx="14" ry="20" fill="#1F2937" stroke="#111827" stroke-width="1"/>
  <ellipse cx="84" cy="98" rx="14" ry="20" fill="#1F2937" stroke="#111827" stroke-width="1"/>
  
  <!-- Arms -->
  <rect x="4" y="112" width="10" height="18" fill="#FDBCB4" rx="5"/>
  <rect x="82" y="112" width="10" height="18" fill="#FDBCB4" rx="5"/>
  
  <!-- Sword (right hand) -->
  <rect x="84" y="115" width="5" height="15" fill="#6B7280"/>
  <rect x="83" y="115" width="7" height="3" fill="#374151"/>
  <rect x="85" y="118" width="3" height="12" fill="#E5E7EB"/>
  
  <!-- Shield (left hand) -->
  <path d="M9 118 L9 132 Q9 135 12 135 Q15 135 15 132 L15 118 Q12 115 9 118 Z" fill="#374151"/>
  <path d="M12 120 Q9 123 9 126 Q9 128 12 128 Q15 128 15 126 Q15 123 12 120 Z" fill="#6B7280"/>
  <rect x="11" y="126" width="2" height="3" fill="#6B7280"/>
  
  <!-- Robe skirt -->
  <path d="M18 115 Q48 110 78 115 L78 140 L18 140 Z" fill="#1F2937" stroke="#111827" stroke-width="1"/>
</svg>