<svg viewBox="0 0 100 140" xmlns="http://www.w3.org/2000/svg">
  <!-- Crown -->
  <path d="M20 20 L28 12 L33 24 L38 8 L43 24 L48 8 L53 24 L58 8 L63 24 L68 12 L76 20 L72 36 L24 36 Z" 
        fill="#374151" stroke="#1F2937" stroke-width="1"/>
  
  <!-- Crown jewels (clubs) -->
  <circle cx="38" cy="20" r="3" fill="#6B7280"/>
  <circle cx="35" cy="17" r="2" fill="#6B7280"/>
  <circle cx="41" cy="17" r="2" fill="#6B7280"/>
  <rect x="37" y="23" width="2" height="4" fill="#6B7280"/>
  
  <circle cx="48" cy="20" r="3.5" fill="#6B7280"/>
  <circle cx="44" cy="16" r="2.5" fill="#6B7280"/>
  <circle cx="52" cy="16" r="2.5" fill="#6B7280"/>
  <rect x="47" y="24" width="2" height="5" fill="#6B7280"/>
  
  <circle cx="58" cy="20" r="3" fill="#6B7280"/>
  <circle cx="55" cy="17" r="2" fill="#6B7280"/>
  <circle cx="61" cy="17" r="2" fill="#6B7280"/>
  <rect x="57" y="23" width="2" height="4" fill="#6B7280"/>

  <!-- Hair -->
  <path d="M24 36 Q18 42 24 48 L72 48 Q78 42 72 36" fill="#1F2937"/>
  
  <!-- Face -->
  <ellipse cx="48" cy="58" rx="20" ry="26" fill="#FDBCB4" stroke="#E68A7A" stroke-width="1"/>

  <!-- Eyes -->
  <circle cx="42" cy="52" r="2.5" fill="#2C3E50"/>
  <circle cx="54" cy="52" r="2.5" fill="#2C3E50"/>
  <path d="M38 49 Q42 47 46 49" stroke="#1F2937" stroke-width="1.2" fill="none"/>
  <path d="M50 49 Q54 47 58 49" stroke="#1F2937" stroke-width="1.2" fill="none"/>

  <!-- Nose -->
  <path d="M48 58 L47 61 L49 61 Z" fill="#E68A7A"/>

  <!-- Mustache -->
  <path d="M40 63 Q48 68 56 63" stroke="#1F2937" stroke-width="3.5" fill="none"/>

  <!-- Beard -->
  <path d="M32 70 Q48 88 64 70 Q58 98 48 98 Q38 98 32 70" fill="#1F2937"/>
  
  <!-- Neck -->
  <rect x="43" y="78" width="10" height="10" fill="#FDBCB4"/>
  
  <!-- Royal collar -->
  <ellipse cx="48" cy="86" rx="14" ry="4" fill="#374151" stroke="#1F2937" stroke-width="1"/>
  <circle cx="48" cy="84" r="3" fill="#6B7280"/>
  <circle cx="45" cy="82" r="2" fill="#6B7280"/>
  <circle cx="51" cy="82" r="2" fill="#6B7280"/>
  <rect x="47" y="87" width="2" height="3" fill="#6B7280"/>

  <!-- Royal robe -->
  <path d="M12 88 Q48 82 84 88 L84 115 Q48 122 12 115 Z" fill="#1F2937" stroke="#111827" stroke-width="1"/>
  
  <!-- Club pattern trim -->
  <circle cx="22" cy="95" r="2.5" fill="#374151"/>
  <circle cx="20" cy="93" r="2" fill="#374151"/>
  <circle cx="24" cy="93" r="2" fill="#374151"/>
  <rect x="21" y="97" width="2" height="3" fill="#374151"/>
  
  <circle cx="35" cy="96" r="2.5" fill="#374151"/>
  <circle cx="33" cy="94" r="2" fill="#374151"/>
  <circle cx="37" cy="94" r="2" fill="#374151"/>
  <rect x="34" y="98" width="2" height="3" fill="#374151"/>
  
  <circle cx="48" cy="95" r="2.5" fill="#374151"/>
  <circle cx="46" cy="93" r="2" fill="#374151"/>
  <circle cx="50" cy="93" r="2" fill="#374151"/>
  <rect x="47" y="97" width="2" height="3" fill="#374151"/>
  
  <circle cx="61" cy="96" r="2.5" fill="#374151"/>
  <circle cx="59" cy="94" r="2" fill="#374151"/>
  <circle cx="63" cy="94" r="2" fill="#374151"/>
  <rect x="60" y="98" width="2" height="3" fill="#374151"/>
  
  <circle cx="74" cy="95" r="2.5" fill="#374151"/>
  <circle cx="72" cy="93" r="2" fill="#374151"/>
  <circle cx="76" cy="93" r="2" fill="#374151"/>
  <rect x="73" y="97" width="2" height="3" fill="#374151"/>
  
  <!-- Sleeves -->
  <ellipse cx="12" cy="98" rx="14" ry="20" fill="#1F2937" stroke="#111827" stroke-width="1"/>
  <ellipse cx="84" cy="98" rx="14" ry="20" fill="#1F2937" stroke="#111827" stroke-width="1"/>
  
  <!-- Arms -->
  <rect x="4" y="112" width="10" height="18" fill="#FDBCB4" rx="5"/>
  <rect x="82" y="112" width="10" height="18" fill="#FDBCB4" rx="5"/>
  
  <!-- Mace (right hand) -->
  <rect x="84" y="118" width="5" height="12" fill="#654321"/>
  <circle cx="86.5" cy="118" r="4" fill="#374151"/>
  <circle cx="84" cy="116" r="2" fill="#6B7280"/>
  <circle cx="89" cy="116" r="2" fill="#6B7280"/>
  <circle cx="86.5" cy="114" r="2" fill="#6B7280"/>
  <rect x="85.5" y="120" width="2" height="3" fill="#6B7280"/>
  
  <!-- Orb (left hand) -->
  <circle cx="9" cy="125" r="5" fill="#374151"/>
  <circle cx="9" cy="123" r="3" fill="#6B7280"/>
  <circle cx="7" cy="121" r="1.5" fill="#6B7280"/>
  <circle cx="11" cy="121" r="1.5" fill="#6B7280"/>
  <rect x="8" y="126" width="2" height="3" fill="#6B7280"/>
  
  <!-- Robe skirt -->
  <path d="M18 115 Q48 110 78 115 L78 140 L18 140 Z" fill="#1F2937" stroke="#111827" stroke-width="1"/>
</svg>