<svg viewBox="0 0 100 140" xmlns="http://www.w3.org/2000/svg">
  <!-- Crown -->
  <path d="M20 20 L28 12 L33 24 L38 8 L43 24 L48 8 L53 24 L58 8 L63 24 L68 12 L76 20 L72 36 L24 36 Z" 
        fill="#FFD700" stroke="#DAA520" stroke-width="1"/>
  
  <!-- Crown jewels (diamonds) -->
  <path d="M38 18 L35 21 L38 24 L41 21 Z" fill="#DC2626"/>
  <path d="M48 18 L44 22 L48 26 L52 22 Z" fill="#DC2626"/>
  <path d="M58 18 L55 21 L58 24 L61 21 Z" fill="#DC2626"/>

  <!-- Hair -->
  <path d="M24 36 Q18 42 24 48 L72 48 Q78 42 72 36" fill="#654321"/>
  
  <!-- Face -->
  <ellipse cx="48" cy="58" rx="20" ry="26" fill="#FDBCB4" stroke="#E68A7A" stroke-width="1"/>

  <!-- Eyes -->
  <circle cx="42" cy="52" r="2.5" fill="#2C3E50"/>
  <circle cx="54" cy="52" r="2.5" fill="#2C3E50"/>
  <path d="M38 49 Q42 47 46 49" stroke="#654321" stroke-width="1.2" fill="none"/>
  <path d="M50 49 Q54 47 58 49" stroke="#654321" stroke-width="1.2" fill="none"/>

  <!-- Nose -->
  <path d="M48 58 L47 61 L49 61 Z" fill="#E68A7A"/>

  <!-- Mustache -->
  <path d="M40 63 Q48 68 56 63" stroke="#654321" stroke-width="3.5" fill="none"/>

  <!-- Beard -->
  <path d="M32 70 Q48 88 64 70 Q58 98 48 98 Q38 98 32 70" fill="#654321"/>
  
  <!-- Neck -->
  <rect x="43" y="78" width="10" height="10" fill="#FDBCB4"/>
  
  <!-- Royal collar -->
  <ellipse cx="48" cy="86" rx="14" ry="4" fill="#FFD700" stroke="#DAA520" stroke-width="1"/>
  <path d="M45 84 L43 87 L45 90 L47 87 Z" fill="#DC2626"/>
  <path d="M51 84 L49 87 L51 90 L53 87 Z" fill="#DC2626"/>

  <!-- Royal robe -->
  <path d="M12 88 Q48 82 84 88 L84 115 Q48 122 12 115 Z" fill="#DC2626" stroke="#B91C1C" stroke-width="1"/>
  
  <!-- Diamond pattern trim -->
  <path d="M22 95 L20 98 L22 101 L24 98 Z" fill="#FFD700"/>
  <path d="M35 96 L33 99 L35 102 L37 99 Z" fill="#FFD700"/>
  <path d="M48 95 L46 98 L48 101 L50 98 Z" fill="#FFD700"/>
  <path d="M61 96 L59 99 L61 102 L63 99 Z" fill="#FFD700"/>
  <path d="M74 95 L72 98 L74 101 L76 98 Z" fill="#FFD700"/>
  
  <!-- Sleeves -->
  <ellipse cx="12" cy="98" rx="14" ry="20" fill="#DC2626" stroke="#B91C1C" stroke-width="1"/>
  <ellipse cx="84" cy="98" rx="14" ry="20" fill="#DC2626" stroke="#B91C1C" stroke-width="1"/>
  
  <!-- Arms -->
  <rect x="4" y="112" width="10" height="18" fill="#FDBCB4" rx="5"/>
  <rect x="82" y="112" width="10" height="18" fill="#FDBCB4" rx="5"/>
  
  <!-- Axe (right hand) -->
  <rect x="84" y="118" width="5" height="12" fill="#8B4513"/>
  <path d="M81 118 L91 118 L89 112 L83 112 Z" fill="#6B7280"/>
  <path d="M87 115 L86 112 L88 112 Z" fill="#DC2626"/>
  
  <!-- Shield (left hand) -->
  <path d="M9 118 L9 132 Q9 135 12 135 Q15 135 15 132 L15 118 Q12 115 9 118 Z" fill="#FFD700"/>
  <path d="M12 120 L10 123 L12 126 L14 123 Z" fill="#DC2626"/>
  
  <!-- Robe skirt -->
  <path d="M18 115 Q48 110 78 115 L78 140 L18 140 Z" fill="#DC2626" stroke="#B91C1C" stroke-width="1"/>
</svg>