<svg viewBox="0 0 100 140" xmlns="http://www.w3.org/2000/svg">
  <!-- Crown -->
  <path d="M22 24 L28 16 L33 28 L38 12 L43 28 L48 12 L53 28 L58 12 L63 28 L68 16 L74 24 L70 36 L26 36 Z" 
        fill="#374151" stroke="#1F2937" stroke-width="1"/>
  
  <!-- Crown jewels (spades) -->
  <path d="M38 20 Q35 23 35 26 Q35 28 38 28 Q41 28 41 26 Q41 23 38 20 Z" fill="#6B7280"/>
  <rect x="37" y="26" width="2" height="3" fill="#6B7280"/>
  
  <path d="M48 20 Q45 23 45 26 Q45 28 48 28 Q51 28 51 26 Q51 23 48 20 Z" fill="#6B7280"/>
  <rect x="47" y="26" width="2" height="3" fill="#6B7280"/>
  
  <path d="M58 20 Q55 23 55 26 Q55 28 58 28 Q61 28 61 26 Q61 23 58 20 Z" fill="#6B7280"/>
  <rect x="57" y="26" width="2" height="3" fill="#6B7280"/>

  <!-- Hair -->
  <path d="M26 36 Q20 46 26 58 Q48 46 70 58 Q76 46 70 36" fill="#1F2937"/>
  
  <!-- Face -->
  <ellipse cx="48" cy="54" rx="18" ry="24" fill="#FDBCB4" stroke="#E68A7A" stroke-width="1"/>

  <!-- Eyes -->
  <circle cx="43" cy="48" r="2.5" fill="#2C3E50"/>
  <circle cx="53" cy="48" r="2.5" fill="#2C3E50"/>
  <path d="M40 45 Q43 43 46 45" stroke="#1F2937" stroke-width="1.2" fill="none"/>
  <path d="M50 45 Q53 43 56 45" stroke="#1F2937" stroke-width="1.2" fill="none"/>

  <!-- Nose -->
  <path d="M48 54 L47 57 L49 57 Z" fill="#E68A7A"/>

  <!-- Lips -->
  <ellipse cx="48" cy="60" rx="3.5" ry="2" fill="#6B7280"/>
  
  <!-- Neck -->
  <rect x="43" y="74" width="10" height="10" fill="#FDBCB4"/>
  
  <!-- Necklace -->
  <ellipse cx="48" cy="80" rx="10" ry="3" fill="none" stroke="#374151" stroke-width="2"/>
  <path d="M48 82 Q45 85 45 88 Q45 90 48 90 Q51 90 51 88 Q51 85 48 82 Z" fill="#6B7280"/>
  <rect x="47" y="88" width="2" height="3" fill="#6B7280"/>

  <!-- Gown bodice -->
  <path d="M18 84 Q48 78 78 84 L78 112 Q48 118 18 112 Z" fill="#1F2937" stroke="#111827" stroke-width="1"/>
  
  <!-- Spade decorations on bodice -->
  <path d="M30 94 Q27 97 27 100 Q27 102 30 102 Q33 102 33 100 Q33 97 30 94 Z" fill="#374151"/>
  <rect x="29" y="100" width="2" height="3" fill="#374151"/>
  
  <path d="M48 95 Q45 98 45 101 Q45 103 48 103 Q51 103 51 101 Q51 98 48 95 Z" fill="#374151"/>
  <rect x="47" y="101" width="2" height="3" fill="#374151"/>
  
  <path d="M66 94 Q63 97 63 100 Q63 102 66 102 Q69 102 69 100 Q69 97 66 94 Z" fill="#374151"/>
  <rect x="65" y="100" width="2" height="3" fill="#374151"/>
  
  <!-- Sleeves -->
  <ellipse cx="18" cy="92" rx="12" ry="18" fill="#1F2937" stroke="#111827" stroke-width="1"/>
  <ellipse cx="78" cy="92" rx="12" ry="18" fill="#1F2937" stroke="#111827" stroke-width="1"/>
  
  <!-- Arms -->
  <rect x="12" y="104" width="8" height="20" fill="#FDBCB4" rx="4"/>
  <rect x="76" y="104" width="8" height="20" fill="#FDBCB4" rx="4"/>
  
  <!-- Hands with weapons -->
  <circle cx="16" cy="120" r="4" fill="#FDBCB4"/>
  <circle cx="80" cy="120" r="4" fill="#FDBCB4"/>
  <rect x="14" y="116" width="4" height="8" fill="#6B7280"/>
  <rect x="78" y="116" width="4" height="8" fill="#6B7280"/>
  
  <!-- Gown skirt -->
  <path d="M22 112 Q48 108 74 112 L74 140 L22 140 Z" fill="#1F2937" stroke="#111827" stroke-width="1"/>
  
  <!-- Decorative spade trim -->
  <path d="M32 120 Q29 123 29 126 Q29 128 32 128 Q35 128 35 126 Q35 123 32 120 Z" fill="#374151"/>
  <rect x="31" y="126" width="2" height="3" fill="#374151"/>
  
  <path d="M48 121 Q45 124 45 127 Q45 129 48 129 Q51 129 51 127 Q51 124 48 121 Z" fill="#374151"/>
  <rect x="47" y="127" width="2" height="3" fill="#374151"/>
  
  <path d="M64 120 Q61 123 61 126 Q61 128 64 128 Q67 128 67 126 Q67 123 64 120 Z" fill="#374151"/>
  <rect x="63" y="126" width="2" height="3" fill="#374151"/>
</svg>