<svg viewBox="0 0 100 140" xmlns="http://www.w3.org/2000/svg">
  <!-- Crown -->
  <path d="M22 24 L28 16 L33 28 L38 12 L43 28 L48 12 L53 28 L58 12 L63 28 L68 16 L74 24 L70 36 L26 36 Z" 
        fill="#FFD700" stroke="#DAA520" stroke-width="1"/>
  
  <!-- Crown jewels (hearts) -->
  <path d="M38 20 Q35 17 32 20 Q32 23 38 27 Q44 23 44 20 Q41 17 38 20 Z" fill="#DC2626"/>
  <path d="M48 20 Q45 17 42 20 Q42 23 48 27 Q54 23 54 20 Q51 17 48 20 Z" fill="#DC2626"/>
  <path d="M58 20 Q55 17 52 20 Q52 23 58 27 Q64 23 64 20 Q61 17 58 20 Z" fill="#DC2626"/>

  <!-- Hair -->
  <path d="M26 36 Q20 46 26 58 Q48 46 70 58 Q76 46 70 36" fill="#8B4513"/>
  
  <!-- Face -->
  <ellipse cx="48" cy="54" rx="18" ry="24" fill="#FDBCB4" stroke="#E68A7A" stroke-width="1"/>

  <!-- Eyes -->
  <circle cx="43" cy="48" r="2.5" fill="#2C3E50"/>
  <circle cx="53" cy="48" r="2.5" fill="#2C3E50"/>
  <path d="M40 45 Q43 43 46 45" stroke="#8B4513" stroke-width="1.2" fill="none"/>
  <path d="M50 45 Q53 43 56 45" stroke="#8B4513" stroke-width="1.2" fill="none"/>

  <!-- Nose -->
  <path d="M48 54 L47 57 L49 57 Z" fill="#E68A7A"/>

  <!-- Lips -->
  <ellipse cx="48" cy="60" rx="3.5" ry="2" fill="#DC2626"/>
  
  <!-- Neck -->
  <rect x="43" y="74" width="10" height="10" fill="#FDBCB4"/>
  
  <!-- Necklace -->
  <ellipse cx="48" cy="80" rx="10" ry="3" fill="none" stroke="#FFD700" stroke-width="2"/>
  <path d="M48 82 Q45 79 42 82 Q42 85 48 89 Q54 85 54 82 Q51 79 48 82 Z" fill="#DC2626"/>

  <!-- Gown bodice -->
  <path d="M18 84 Q48 78 78 84 L78 112 Q48 118 18 112 Z" fill="#DC2626" stroke="#B91C1C" stroke-width="1"/>
  
  <!-- Heart decorations on bodice -->
  <path d="M30 94 Q28 91 26 94 Q26 97 30 101 Q34 97 34 94 Q32 91 30 94 Z" fill="#B91C1C"/>
  <path d="M48 95 Q46 92 44 95 Q44 98 48 102 Q52 98 52 95 Q50 92 48 95 Z" fill="#B91C1C"/>
  <path d="M66 94 Q64 91 62 94 Q62 97 66 101 Q70 97 70 94 Q68 91 66 94 Z" fill="#B91C1C"/>
  
  <!-- Sleeves -->
  <ellipse cx="18" cy="92" rx="12" ry="18" fill="#DC2626" stroke="#B91C1C" stroke-width="1"/>
  <ellipse cx="78" cy="92" rx="12" ry="18" fill="#DC2626" stroke="#B91C1C" stroke-width="1"/>
  
  <!-- Arms -->
  <rect x="12" y="104" width="8" height="20" fill="#FDBCB4" rx="4"/>
  <rect x="76" y="104" width="8" height="20" fill="#FDBCB4" rx="4"/>
  
  <!-- Hands with flowers -->
  <circle cx="16" cy="120" r="4" fill="#FDBCB4"/>
  <circle cx="80" cy="120" r="4" fill="#FDBCB4"/>
  <path d="M16 118 Q14 115 12 118 Q12 121 16 125 Q20 121 20 118 Q18 115 16 118 Z" fill="#FFD700"/>
  <path d="M80 118 Q78 115 76 118 Q76 121 80 125 Q84 121 84 118 Q82 115 80 118 Z" fill="#FFD700"/>
  
  <!-- Gown skirt -->
  <path d="M22 112 Q48 108 74 112 L74 140 L22 140 Z" fill="#DC2626" stroke="#B91C1C" stroke-width="1"/>
  
  <!-- Decorative trim -->
  <path d="M28 120 Q48 118 68 120" stroke="#FFD700" stroke-width="2" fill="none"/>
</svg>