<svg viewBox="0 0 100 140" xmlns="http://www.w3.org/2000/svg">
  <!-- Crown -->
  <path d="M22 24 L28 16 L33 28 L38 12 L43 28 L48 12 L53 28 L58 12 L63 28 L68 16 L74 24 L70 36 L26 36 Z" 
        fill="#374151" stroke="#1F2937" stroke-width="1"/>
  
  <!-- Crown jewels (clubs) -->
  <circle cx="38" cy="20" r="3" fill="#6B7280"/>
  <circle cx="35" cy="17" r="2" fill="#6B7280"/>
  <circle cx="41" cy="17" r="2" fill="#6B7280"/>
  <rect x="37" y="23" width="2" height="3" fill="#6B7280"/>
  
  <circle cx="48" cy="20" r="3" fill="#6B7280"/>
  <circle cx="45" cy="17" r="2" fill="#6B7280"/>
  <circle cx="51" cy="17" r="2" fill="#6B7280"/>
  <rect x="47" y="23" width="2" height="3" fill="#6B7280"/>
  
  <circle cx="58" cy="20" r="3" fill="#6B7280"/>
  <circle cx="55" cy="17" r="2" fill="#6B7280"/>
  <circle cx="61" cy="17" r="2" fill="#6B7280"/>
  <rect x="57" y="23" width="2" height="3" fill="#6B7280"/>

  <!-- Hair -->
  <path d="M26 36 Q20 46 26 58 Q48 46 70 58 Q76 46 70 36" fill="#1F2937"/>
  
  <!-- Face -->
  <ellipse cx="48" cy="54" rx="18" ry="24" fill="#FDBCB4" stroke="#E68A7A" stroke-width="1"/>

  <!-- Eyes -->
  <circle cx="43" cy="48" r="2.5" fill="#2C3E50"/>
  <circle cx="53" cy="48" r="2.5" fill="#2C3E50"/>
  <path d="M40 45 Q43 43 46 45" stroke="#1F2937" stroke-width="1.2" fill="none"/>
  <path d="M50 45 Q53 43 56 45" stroke="#1F2937" stroke-width="1.2" fill="none"/>

  <!-- Nose -->
  <path d="M48 54 L47 57 L49 57 Z" fill="#E68A7A"/>

  <!-- Lips -->
  <ellipse cx="48" cy="60" rx="3.5" ry="2" fill="#6B7280"/>
  
  <!-- Neck -->
  <rect x="43" y="74" width="10" height="10" fill="#FDBCB4"/>
  
  <!-- Necklace -->
  <ellipse cx="48" cy="80" rx="10" ry="3" fill="none" stroke="#374151" stroke-width="2"/>
  <circle cx="48" cy="82" r="3" fill="#6B7280"/>
  <circle cx="45" cy="80" r="2" fill="#6B7280"/>
  <circle cx="51" cy="80" r="2" fill="#6B7280"/>
  <rect x="47" y="85" width="2" height="3" fill="#6B7280"/>

  <!-- Gown bodice -->
  <path d="M18 84 Q48 78 78 84 L78 112 Q48 118 18 112 Z" fill="#1F2937" stroke="#111827" stroke-width="1"/>
  
  <!-- Club decorations on bodice -->
  <circle cx="30" cy="94" r="2.5" fill="#374151"/>
  <circle cx="28" cy="92" r="2" fill="#374151"/>
  <circle cx="32" cy="92" r="2" fill="#374151"/>
  <rect x="29" y="96" width="2" height="3" fill="#374151"/>
  
  <circle cx="48" cy="95" r="2.5" fill="#374151"/>
  <circle cx="46" cy="93" r="2" fill="#374151"/>
  <circle cx="50" cy="93" r="2" fill="#374151"/>
  <rect x="47" y="97" width="2" height="3" fill="#374151"/>
  
  <circle cx="66" cy="94" r="2.5" fill="#374151"/>
  <circle cx="64" cy="92" r="2" fill="#374151"/>
  <circle cx="68" cy="92" r="2" fill="#374151"/>
  <rect x="65" y="96" width="2" height="3" fill="#374151"/>
  
  <!-- Sleeves -->
  <ellipse cx="18" cy="92" rx="12" ry="18" fill="#1F2937" stroke="#111827" stroke-width="1"/>
  <ellipse cx="78" cy="92" rx="12" ry="18" fill="#1F2937" stroke="#111827" stroke-width="1"/>
  
  <!-- Arms -->
  <rect x="12" y="104" width="8" height="20" fill="#FDBCB4" rx="4"/>
  <rect x="76" y="104" width="8" height="20" fill="#FDBCB4" rx="4"/>
  
  <!-- Hands with fans -->
  <circle cx="16" cy="120" r="4" fill="#FDBCB4"/>
  <circle cx="80" cy="120" r="4" fill="#FDBCB4"/>
  <path d="M12 118 L20 118 L18 114 L14 114 Z" fill="#374151"/>
  <path d="M76 118 L84 118 L82 114 L78 114 Z" fill="#374151"/>
  
  <!-- Gown skirt -->
  <path d="M22 112 Q48 108 74 112 L74 140 L22 140 Z" fill="#1F2937" stroke="#111827" stroke-width="1"/>
  
  <!-- Decorative club trim -->
  <circle cx="32" cy="120" r="2.5" fill="#374151"/>
  <circle cx="30" cy="118" r="2" fill="#374151"/>
  <circle cx="34" cy="118" r="2" fill="#374151"/>
  <rect x="31" y="122" width="2" height="3" fill="#374151"/>
  
  <circle cx="48" cy="121" r="2.5" fill="#374151"/>
  <circle cx="46" cy="119" r="2" fill="#374151"/>
  <circle cx="50" cy="119" r="2" fill="#374151"/>
  <rect x="47" y="123" width="2" height="3" fill="#374151"/>
  
  <circle cx="64" cy="120" r="2.5" fill="#374151"/>
  <circle cx="62" cy="118" r="2" fill="#374151"/>
  <circle cx="66" cy="118" r="2" fill="#374151"/>
  <rect x="63" y="122" width="2" height="3" fill="#374151"/>
</svg>