<svg viewBox="0 0 100 140" xmlns="http://www.w3.org/2000/svg">
  <!-- Crown -->
  <path d="M22 24 L28 16 L33 28 L38 12 L43 28 L48 12 L53 28 L58 12 L63 28 L68 16 L74 24 L70 36 L26 36 Z" 
        fill="#FFD700" stroke="#DAA520" stroke-width="1"/>
  
  <!-- Crown jewels (diamonds) -->
  <path d="M38 20 L35 23 L38 26 L41 23 Z" fill="#DC2626"/>
  <path d="M48 20 L45 23 L48 26 L51 23 Z" fill="#DC2626"/>
  <path d="M58 20 L55 23 L58 26 L61 23 Z" fill="#DC2626"/>

  <!-- Hair -->
  <path d="M26 36 Q20 46 26 58 Q48 46 70 58 Q76 46 70 36" fill="#654321"/>
  
  <!-- Face -->
  <ellipse cx="48" cy="54" rx="18" ry="24" fill="#FDBCB4" stroke="#E68A7A" stroke-width="1"/>

  <!-- Eyes -->
  <circle cx="43" cy="48" r="2.5" fill="#2C3E50"/>
  <circle cx="53" cy="48" r="2.5" fill="#2C3E50"/>
  <path d="M40 45 Q43 43 46 45" stroke="#654321" stroke-width="1.2" fill="none"/>
  <path d="M50 45 Q53 43 56 45" stroke="#654321" stroke-width="1.2" fill="none"/>

  <!-- Nose -->
  <path d="M48 54 L47 57 L49 57 Z" fill="#E68A7A"/>

  <!-- Lips -->
  <ellipse cx="48" cy="60" rx="3.5" ry="2" fill="#DC2626"/>
  
  <!-- Neck -->
  <rect x="43" y="74" width="10" height="10" fill="#FDBCB4"/>
  
  <!-- Necklace -->
  <ellipse cx="48" cy="80" rx="10" ry="3" fill="none" stroke="#FFD700" stroke-width="2"/>
  <path d="M48 82 L46 85 L48 88 L50 85 Z" fill="#DC2626"/>

  <!-- Gown bodice -->
  <path d="M18 84 Q48 78 78 84 L78 112 Q48 118 18 112 Z" fill="#DC2626" stroke="#B91C1C" stroke-width="1"/>
  
  <!-- Diamond decorations on bodice -->
  <path d="M30 94 L28 97 L30 100 L32 97 Z" fill="#FFD700"/>
  <path d="M48 95 L46 98 L48 101 L50 98 Z" fill="#FFD700"/>
  <path d="M66 94 L64 97 L66 100 L68 97 Z" fill="#FFD700"/>
  
  <!-- Sleeves -->
  <ellipse cx="18" cy="92" rx="12" ry="18" fill="#DC2626" stroke="#B91C1C" stroke-width="1"/>
  <ellipse cx="78" cy="92" rx="12" ry="18" fill="#DC2626" stroke="#B91C1C" stroke-width="1"/>
  
  <!-- Arms -->
  <rect x="12" y="104" width="8" height="20" fill="#FDBCB4" rx="4"/>
  <rect x="76" y="104" width="8" height="20" fill="#FDBCB4" rx="4"/>
  
  <!-- Hands with orbs -->
  <circle cx="16" cy="120" r="4" fill="#FDBCB4"/>
  <circle cx="80" cy="120" r="4" fill="#FDBCB4"/>
  <circle cx="16" cy="118" r="3" fill="#FFD700"/>
  <circle cx="80" cy="118" r="3" fill="#FFD700"/>
  <path d="M16 116 L14 119 L16 122 L18 119 Z" fill="#DC2626"/>
  <path d="M80 116 L78 119 L80 122 L82 119 Z" fill="#DC2626"/>
  
  <!-- Gown skirt -->
  <path d="M22 112 Q48 108 74 112 L74 140 L22 140 Z" fill="#DC2626" stroke="#B91C1C" stroke-width="1"/>
  
  <!-- Decorative diamond trim -->
  <path d="M32 120 L30 123 L32 126 L34 123 Z" fill="#FFD700"/>
  <path d="M48 121 L46 124 L48 127 L50 124 Z" fill="#FFD700"/>
  <path d="M64 120 L62 123 L64 126 L66 123 Z" fill="#FFD700"/>
</svg>