<svg viewBox="0 0 100 102" xmlns="http://www.w3.org/2000/svg">
  <!-- Crown -->
  <path d="M25 18 L30 12 L35 22 L40 8 L45 22 L50 8 L55 22 L60 8 L65 22 L70 12 L75 18 L72 28 L28 28 Z" 
        fill="#374151" stroke="#1F2937" stroke-width="1"/>
  
  <!-- Crown jewels -->
  <circle cx="40" cy="15" r="2" fill="#6B7280"/>
  <circle cx="50" cy="15" r="2" fill="#6B7280"/>
  <circle cx="60" cy="15" r="2" fill="#6B7280"/>

  <!-- Hair -->
  <path d="M28 28 Q22 38 28 48 Q50 38 72 48 Q78 38 72 28" fill="#1F2937"/>
  
  <!-- Face -->
  <ellipse cx="50" cy="42" rx="16" ry="20" fill="#FDBCB4" stroke="#E68A7A" stroke-width="1"/>

  <!-- Eyes -->
  <circle cx="45" cy="39" r="2" fill="#2C3E50"/>
  <circle cx="55" cy="39" r="2" fill="#2C3E50"/>
  <path d="M43 37 Q45 35 47 37" stroke="#1F2937" stroke-width="1" fill="none"/>
  <path d="M53 37 Q55 35 57 37" stroke="#1F2937" stroke-width="1" fill="none"/>

  <!-- Nose -->
  <path d="M50 42 L49 44 L51 44 Z" fill="#E68A7A"/>

  <!-- Lips -->
  <ellipse cx="50" cy="46" rx="3" ry="1.5" fill="#6B7280"/>
  
  <!-- Neck -->
  <rect x="45" y="58" width="10" height="8" fill="#FDBCB4"/>
  
  <!-- Necklace -->
  <ellipse cx="50" cy="62" rx="8" ry="2" fill="none" stroke="#374151" stroke-width="2"/>
  <path d="M50 64 Q47 67 47 70 Q47 72 50 72 Q53 72 53 70 Q53 67 50 64 Z" fill="#1F2937"/>
  <rect x="49" y="70" width="2" height="3" fill="#1F2937"/>

  <!-- Gown bodice -->
  <path d="M20 66 Q50 62 80 66 L80 88 Q50 92 20 88 Z" fill="#1F2937" stroke="#111827" stroke-width="1"/>
  
  <!-- Sleeves -->
  <ellipse cx="20" cy="72" rx="10" ry="14" fill="#1F2937" stroke="#111827" stroke-width="1"/>
  <ellipse cx="80" cy="72" rx="10" ry="14" fill="#1F2937" stroke="#111827" stroke-width="1"/>
  
  <!-- Arms -->
  <rect x="15" y="82" width="6" height="16" fill="#FDBCB4" rx="3"/>
  <rect x="79" y="82" width="6" height="16" fill="#FDBCB4" rx="3"/>
  
  
  <!-- Gown skirt -->
  <path d="M25 88 Q50 85 75 88 L78 102 L22 102 Z" fill="#1F2937" stroke="#111827" stroke-width="1"/>
  
  <!-- Decorative spade trim -->
  <path d="M35 75 Q32 78 32 81 Q32 83 35 83 Q38 83 38 81 Q38 78 35 75 Z" fill="#374151"/>
  <rect x="34" y="81" width="2" height="3" fill="#374151"/>
  <path d="M50 75 Q47 78 47 81 Q47 83 50 83 Q53 83 53 81 Q53 78 50 75 Z" fill="#374151"/>
  <rect x="49" y="81" width="2" height="3" fill="#374151"/>
  <path d="M65 75 Q62 78 62 81 Q62 83 65 83 Q68 83 68 81 Q68 78 65 75 Z" fill="#374151"/>
  <rect x="64" y="81" width="2" height="3" fill="#374151"/>
</svg>